<?xml version="1.0" encoding="UTF-8" standalone="no"?>
<!DOCTYPE svg PUBLIC "-//W3C//DTD SVG 1.1//EN" "http://www.w3.org/Graphics/SVG/1.1/DTD/svg11.dtd">
<svg width="100%" height="100%" viewBox="0 0 800 800" version="1.1" xmlns="http://www.w3.org/2000/svg" xmlns:xlink="http://www.w3.org/1999/xlink" xml:space="preserve" xmlns:serif="http://www.serif.com/" style="fill-rule:evenodd;clip-rule:evenodd;stroke-linejoin:round;stroke-miterlimit:2;">
    <rect id="Artboard1" x="0" y="0" width="800" height="800" style="fill:none;"/>
    <clipPath id="_clip1">
        <rect id="Artboard11" serif:id="Artboard1" x="0" y="0" width="800" height="800"/>
    </clipPath>
    <g clip-path="url(#_clip1)">
        <g id="GraphQL" transform="matrix(1,0,0,1,-560,-140)">
            <rect x="0" y="0" width="1920" height="1080" style="fill:none;"/>
            <g transform="matrix(1.03834,0,0,1.03834,-36.8084,-20.7047)">
                <circle cx="960" cy="540" r="385.23" style="fill:rgb(218,68,83);"/>
            </g>
            <g id="GraphQL-Icon" serif:id="GraphQL Icon" transform="matrix(1.27681,0,0,1.27681,704.637,284.637)">
                <g transform="matrix(-0.866,-0.5,0.5,-0.866,163.32,363.314)">
                    <g>
                        <rect x="122" y="-0.4" width="16.6" height="320.3" style="fill:rgb(229,53,171);"/>
                    </g>
                </g>
                <g>
                    <g>
                        <rect x="39.8" y="272.2" width="320.3" height="16.6" style="fill:rgb(229,53,171);"/>
                    </g>
                </g>
                <g transform="matrix(-0.866,-0.5,0.5,-0.866,83.0693,663.341)">
                    <g>
                        <rect x="37.9" y="312.2" width="185" height="16.6" style="fill:rgb(229,53,171);"/>
                    </g>
                </g>
                <g transform="matrix(-0.866,-0.5,0.5,-0.866,463.341,283.069)">
                    <g>
                        <rect x="177.1" y="71.1" width="185" height="16.6" style="fill:rgb(229,53,171);"/>
                    </g>
                </g>
                <g transform="matrix(-0.5,-0.866,0.866,-0.5,126.79,232.122)">
                    <g>
                        <rect x="122.1" y="-13" width="16.6" height="185" style="fill:rgb(229,53,171);"/>
                    </g>
                </g>
                <g transform="matrix(-0.5,-0.866,0.866,-0.5,266.083,473.377)">
                    <g>
                        <rect x="109.6" y="151.6" width="320.3" height="16.6" style="fill:rgb(229,53,171);"/>
                    </g>
                </g>
                <g>
                    <g>
                        <rect x="52.5" y="107.5" width="16.6" height="185" style="fill:rgb(229,53,171);"/>
                    </g>
                </g>
                <g>
                    <g>
                        <rect x="330.9" y="107.5" width="16.6" height="185" style="fill:rgb(229,53,171);"/>
                    </g>
                </g>
                <g transform="matrix(-0.5,-0.866,0.866,-0.5,126.795,714.288)">
                    <g>
                        <rect x="262.4" y="240.1" width="14.5" height="160.9" style="fill:rgb(229,53,171);"/>
                    </g>
                </g>
                <path d="M369.5,297.9C359.9,314.6 338.5,320.3 321.8,310.7C305.1,301.1 299.4,279.7 309,263C318.6,246.3 340,240.6 356.7,250.2C373.5,259.9 379.2,281.2 369.5,297.9" style="fill:rgb(229,53,171);fill-rule:nonzero;"/>
                <path d="M90.9,137C81.3,153.7 59.9,159.4 43.2,149.8C26.5,140.2 20.8,118.8 30.4,102.1C40,85.4 61.4,79.7 78.1,89.3C94.8,99 100.5,120.3 90.9,137" style="fill:rgb(229,53,171);fill-rule:nonzero;"/>
                <path d="M30.5,297.9C20.9,281.2 26.6,259.9 43.3,250.2C60,240.6 81.3,246.3 91,263C100.6,279.7 94.9,301 78.2,310.7C61.4,320.3 40.1,314.6 30.5,297.9" style="fill:rgb(229,53,171);fill-rule:nonzero;"/>
                <path d="M309.1,137C299.5,120.3 305.2,99 321.9,89.3C338.6,79.7 359.9,85.4 369.6,102.1C379.2,118.8 373.5,140.1 356.8,149.8C340.1,159.4 318.7,153.7 309.1,137" style="fill:rgb(229,53,171);fill-rule:nonzero;"/>
                <path d="M200,395.8C180.7,395.8 165.1,380.2 165.1,360.9C165.1,341.6 180.7,326 200,326C219.3,326 234.9,341.6 234.9,360.9C234.9,380.1 219.3,395.8 200,395.8" style="fill:rgb(229,53,171);fill-rule:nonzero;"/>
                <path d="M200,74C180.7,74 165.1,58.4 165.1,39.1C165.1,19.8 180.7,4.2 200,4.2C219.3,4.2 234.9,19.8 234.9,39.1C234.9,58.4 219.3,74 200,74" style="fill:rgb(229,53,171);fill-rule:nonzero;"/>
            </g>
            <g id="GraphQL-B-W-Icon" serif:id="GraphQL B&amp;W Icon" transform="matrix(1.27681,0,0,1.27681,704.637,284.637)">
                <g transform="matrix(-0.866,-0.5,0.5,-0.866,163.32,363.314)">
                    <g>
                        <rect x="122" y="-0.4" width="16.6" height="320.3" style="fill:rgb(45,41,45);"/>
                    </g>
                </g>
                <g>
                    <g>
                        <rect x="39.8" y="272.2" width="320.3" height="16.6" style="fill:rgb(45,41,45);"/>
                    </g>
                </g>
                <g transform="matrix(-0.866,-0.5,0.5,-0.866,83.0693,663.341)">
                    <g>
                        <rect x="37.9" y="312.2" width="185" height="16.6" style="fill:rgb(45,41,45);"/>
                    </g>
                </g>
                <g transform="matrix(-0.866,-0.5,0.5,-0.866,463.341,283.069)">
                    <g>
                        <rect x="177.1" y="71.1" width="185" height="16.6" style="fill:rgb(45,41,45);"/>
                    </g>
                </g>
                <g transform="matrix(-0.5,-0.866,0.866,-0.5,126.79,232.122)">
                    <g>
                        <rect x="122.1" y="-13" width="16.6" height="185" style="fill:rgb(45,41,45);"/>
                    </g>
                </g>
                <g transform="matrix(-0.5,-0.866,0.866,-0.5,266.083,473.377)">
                    <g>
                        <rect x="109.6" y="151.6" width="320.3" height="16.6" style="fill:rgb(45,41,45);"/>
                    </g>
                </g>
                <g>
                    <g>
                        <rect x="52.5" y="107.5" width="16.6" height="185" style="fill:rgb(45,41,45);"/>
                    </g>
                </g>
                <g>
                    <g>
                        <rect x="330.9" y="107.5" width="16.6" height="185" style="fill:rgb(45,41,45);"/>
                    </g>
                </g>
                <g transform="matrix(-0.5,-0.866,0.866,-0.5,126.795,714.288)">
                    <g>
                        <rect x="262.4" y="240.1" width="14.5" height="160.9" style="fill:rgb(45,41,45);"/>
                    </g>
                </g>
                <path d="M369.5,297.9C359.9,314.6 338.5,320.3 321.8,310.7C305.1,301.1 299.4,279.7 309,263C318.6,246.3 340,240.6 356.7,250.2C373.5,259.9 379.2,281.2 369.5,297.9" style="fill:rgb(45,41,45);fill-rule:nonzero;"/>
                <path d="M90.9,137C81.3,153.7 59.9,159.4 43.2,149.8C26.5,140.2 20.8,118.8 30.4,102.1C40,85.4 61.4,79.7 78.1,89.3C94.8,99 100.5,120.3 90.9,137" style="fill:rgb(45,41,45);fill-rule:nonzero;"/>
                <path d="M30.5,297.9C20.9,281.2 26.6,259.9 43.3,250.2C60,240.6 81.3,246.3 91,263C100.6,279.7 94.9,301 78.2,310.7C61.4,320.3 40.1,314.6 30.5,297.9" style="fill:rgb(45,41,45);fill-rule:nonzero;"/>
                <path d="M309.1,137C299.5,120.3 305.2,99 321.9,89.3C338.6,79.7 359.9,85.4 369.6,102.1C379.2,118.8 373.5,140.1 356.8,149.8C340.1,159.4 318.7,153.7 309.1,137" style="fill:rgb(45,41,45);fill-rule:nonzero;"/>
                <path d="M200,395.8C180.7,395.8 165.1,380.2 165.1,360.9C165.1,341.6 180.7,326 200,326C219.3,326 234.9,341.6 234.9,360.9C234.9,380.1 219.3,395.8 200,395.8" style="fill:rgb(45,41,45);fill-rule:nonzero;"/>
                <path d="M200,74C180.7,74 165.1,58.4 165.1,39.1C165.1,19.8 180.7,4.2 200,4.2C219.3,4.2 234.9,19.8 234.9,39.1C234.9,58.4 219.3,74 200,74" style="fill:rgb(45,41,45);fill-rule:nonzero;"/>
            </g>
        </g>
    </g>
</svg>
