<?xml version="1.0" encoding="UTF-8" standalone="no"?>
<!DOCTYPE svg PUBLIC "-//W3C//DTD SVG 1.1//EN" "http://www.w3.org/Graphics/SVG/1.1/DTD/svg11.dtd">
<svg width="100%" height="100%" viewBox="0 0 800 800" version="1.1" xmlns="http://www.w3.org/2000/svg" xmlns:xlink="http://www.w3.org/1999/xlink" xml:space="preserve" xmlns:serif="http://www.serif.com/" style="fill-rule:evenodd;clip-rule:evenodd;stroke-linejoin:round;stroke-miterlimit:2;">
    <rect id="Artboard1" x="0" y="0" width="800" height="800" style="fill:none;"/>
    <clipPath id="_clip1">
        <rect id="Artboard11" serif:id="Artboard1" x="0" y="0" width="800" height="800"/>
    </clipPath>
    <g clip-path="url(#_clip1)">
        <g id="HTML5" transform="matrix(1,0,0,1,-560,-140)">
            <rect x="0" y="0" width="1920" height="1080" style="fill:none;"/>
            <g transform="matrix(1.03834,0,0,1.03834,-36.8084,-20.7047)">
                <circle cx="960" cy="540" r="385.23" style="fill:rgb(218,68,83);"/>
            </g>
            <g id="HTML5-Icon" serif:id="HTML5 Icon" transform="matrix(0.976562,0,0,0.976562,710.488,290)">
                <path d="M71,460L30,0L481,0L440,460L255,512" style="fill:rgb(227,79,38);fill-rule:nonzero;"/>
                <path d="M256,472L405,431L440,37L256,37" style="fill:rgb(239,101,42);fill-rule:nonzero;"/>
                <path d="M256,208L181,208L176,150L256,150L256,94L114,94L115,109L129,265L256,265L256,208ZM256,355L255,355L192,338L188,293L132,293L139,382L255,414L256,414L256,355Z" style="fill:rgb(235,235,235);fill-rule:nonzero;"/>
                <path d="M255,208L255,265L325,265L318,338L255,355L255,414L371,382L372,372L385,223L387,208L255,208ZM255,94L255,150L392,150L393,138L396,109L397,94L255,94Z" style="fill:white;fill-rule:nonzero;"/>
            </g>
            <g id="HTML5-B-W-Icon" serif:id="HTML5 B&amp;W Icon" transform="matrix(0.976562,0,0,0.976562,710.488,290)">
                <path d="M71,460L30,0L481,0L440,460L255,512" style="fill:rgb(45,41,45);fill-rule:nonzero;"/>
                <path d="M256,472L405,431L440,37L256,37" style="fill:rgb(96,86,96);fill-rule:nonzero;"/>
                <path d="M256,208L181,208L176,150L256,150L256,94L114,94L115,109L129,265L256,265L256,208ZM256,355L255,355L192,338L188,293L132,293L139,382L255,414L256,414L256,355Z" style="fill:rgb(235,235,235);fill-rule:nonzero;"/>
                <path d="M255,208L255,265L325,265L318,338L255,355L255,414L371,382L372,372L385,223L387,208L255,208ZM255,94L255,150L392,150L393,138L396,109L397,94L255,94Z" style="fill:white;fill-rule:nonzero;"/>
            </g>
        </g>
    </g>
</svg>
