<?xml version="1.0" encoding="UTF-8" standalone="no"?>
<!DOCTYPE svg PUBLIC "-//W3C//DTD SVG 1.1//EN" "http://www.w3.org/Graphics/SVG/1.1/DTD/svg11.dtd">
<svg width="100%" height="100%" viewBox="0 0 800 800" version="1.1" xmlns="http://www.w3.org/2000/svg" xmlns:xlink="http://www.w3.org/1999/xlink" xml:space="preserve" xmlns:serif="http://www.serif.com/" style="fill-rule:evenodd;clip-rule:evenodd;">
    <rect id="Artboard1" x="0" y="0" width="800" height="800" style="fill:none;"/>
    <clipPath id="_clip1">
        <rect id="Artboard11" serif:id="Artboard1" x="0" y="0" width="800" height="800"/>
    </clipPath>
    <g clip-path="url(#_clip1)">
        <g id="Markdown" transform="matrix(1,0,0,1,-560,-140)">
            <rect x="0" y="0" width="1920" height="1080" style="fill:none;"/>
            <g transform="matrix(1.03834,0,0,1.03834,-36.8084,-20.7047)">
                <circle cx="960" cy="540" r="385.23" style="fill:rgb(218,68,83);"/>
            </g>
            <g id="Markdown-Icon" serif:id="Markdown Icon" transform="matrix(2.52525,0,0,2.52525,697.374,378.384)">
                <rect x="5" y="5" width="198" height="118" style="fill:none;stroke:black;stroke-width:10px;"/>
                <path d="M30,98L30,30L50,30L70,55L90,30L110,30L110,98L90,98L90,59L70,84L50,59L50,98L30,98ZM155,98L125,65L145,65L145,30L165,30L165,65L185,65L155,98Z" style="fill-rule:nonzero;"/>
            </g>
            <g id="Markdown-B-W-Icon" serif:id="Markdown B&amp;W Icon" transform="matrix(2.52525,0,0,2.52525,697.374,378.384)">
                <rect x="5" y="5" width="198" height="118" style="fill:none;stroke:rgb(45,41,45);stroke-width:10px;"/>
                <path d="M30,98L30,30L50,30L70,55L90,30L110,30L110,98L90,98L90,59L70,84L50,59L50,98L30,98ZM155,98L125,65L145,65L145,30L165,30L165,65L185,65L155,98Z" style="fill:rgb(45,41,45);fill-rule:nonzero;"/>
            </g>
        </g>
    </g>
</svg>
