<?xml version="1.0" encoding="UTF-8" standalone="no"?>
<!DOCTYPE svg PUBLIC "-//W3C//DTD SVG 1.1//EN" "http://www.w3.org/Graphics/SVG/1.1/DTD/svg11.dtd">
<svg width="100%" height="100%" viewBox="0 0 800 800" version="1.1" xmlns="http://www.w3.org/2000/svg" xmlns:xlink="http://www.w3.org/1999/xlink" xml:space="preserve" xmlns:serif="http://www.serif.com/" style="fill-rule:evenodd;clip-rule:evenodd;stroke-linejoin:round;stroke-miterlimit:2;">
    <rect id="Artboard1" x="0" y="0" width="800" height="800" style="fill:none;"/>
    <clipPath id="_clip1">
        <rect id="Artboard11" serif:id="Artboard1" x="0" y="0" width="800" height="800"/>
    </clipPath>
    <g clip-path="url(#_clip1)">
        <g id="MongoDB" transform="matrix(1,0,0,1,-560,-140)">
            <rect x="0" y="0" width="1920" height="1080" style="fill:none;"/>
            <g transform="matrix(1.03834,0,0,1.03834,-36.8084,-20.7047)">
                <circle cx="960" cy="540" r="385.23" style="fill:rgb(218,68,83);"/>
            </g>
            <g id="MongoDB-Icon" serif:id="MongoDB Icon" transform="matrix(7.81191,0,0,7.81191,710.016,290.006)">
                <path d="M31.8,0.174L33.508,3.382C33.892,3.974 34.308,4.498 34.798,4.986C36.228,6.416 37.586,7.914 38.806,9.518C41.7,13.318 43.652,17.538 45.046,22.102C45.882,24.89 46.336,27.75 46.37,30.642C46.51,39.288 43.546,46.712 37.57,52.882C36.594,53.858 35.55,54.762 34.43,55.566C33.838,55.566 33.558,55.112 33.314,54.694C32.86,53.928 32.582,53.054 32.442,52.184C32.232,51.138 32.094,50.092 32.162,49.012L32.162,48.524C32.114,48.42 31.592,0.42 31.8,0.174Z" style="fill:rgb(89,150,54);fill-rule:nonzero;"/>
                <path d="M31.8,0.068C31.73,-0.072 31.66,0.034 31.59,0.102C31.624,0.802 31.38,1.426 30.998,2.022C30.578,2.614 30.022,3.068 29.464,3.556C26.364,6.24 23.924,9.482 21.97,13.108C19.37,17.988 18.03,23.218 17.65,28.724C17.476,30.71 18.278,37.718 18.904,39.74C20.612,45.108 23.68,49.606 27.654,53.51C28.63,54.45 29.674,55.322 30.754,56.16C31.068,56.16 31.102,55.88 31.174,55.672C31.312,55.227 31.417,54.772 31.488,54.312L32.188,49.084L31.8,0.068Z" style="fill:rgb(108,172,72);fill-rule:nonzero;"/>
                <path d="M33.508,57.69C33.578,56.89 33.962,56.226 34.38,55.564C33.96,55.39 33.648,55.044 33.404,54.658C33.194,54.31 33.02,53.892 32.884,53.508C32.396,52.044 32.292,50.508 32.152,49.012L32.152,48.106C31.978,48.246 31.942,49.43 31.942,49.606C31.84,51.187 31.63,52.759 31.314,54.312C31.21,54.94 31.14,55.566 30.754,56.124C30.754,56.194 30.754,56.264 30.788,56.368C31.416,58.216 31.588,60.098 31.694,62.016L31.694,62.716C31.694,63.552 31.66,63.376 32.354,63.656C32.634,63.76 32.946,63.796 33.226,64.004C33.436,64.004 33.47,63.83 33.47,63.69L33.366,62.54L33.366,59.332C33.332,58.772 33.436,58.216 33.506,57.692L33.508,57.69Z" style="fill:rgb(194,191,191);fill-rule:nonzero;"/>
            </g>
            <g id="MongoDB-B-W-Icon" serif:id="MongoDB B&amp;W Icon" transform="matrix(7.81191,0,0,7.81191,710.016,290.006)">
                <path d="M31.8,0.174L33.508,3.382C33.892,3.974 34.308,4.498 34.798,4.986C36.228,6.416 37.586,7.914 38.806,9.518C41.7,13.318 43.652,17.538 45.046,22.102C45.882,24.89 46.336,27.75 46.37,30.642C46.51,39.288 43.546,46.712 37.57,52.882C36.594,53.858 35.55,54.762 34.43,55.566C33.838,55.566 33.558,55.112 33.314,54.694C32.86,53.928 32.582,53.054 32.442,52.184C32.232,51.138 32.094,50.092 32.162,49.012L32.162,48.524C32.114,48.42 31.592,0.42 31.8,0.174Z" style="fill:rgb(45,41,45);fill-rule:nonzero;"/>
                <path d="M31.8,0.068C31.73,-0.072 31.66,0.034 31.59,0.102C31.624,0.802 31.38,1.426 30.998,2.022C30.578,2.614 30.022,3.068 29.464,3.556C26.364,6.24 23.924,9.482 21.97,13.108C19.37,17.988 18.03,23.218 17.65,28.724C17.476,30.71 18.278,37.718 18.904,39.74C20.612,45.108 23.68,49.606 27.654,53.51C28.63,54.45 29.674,55.322 30.754,56.16C31.068,56.16 31.102,55.88 31.174,55.672C31.312,55.227 31.417,54.772 31.488,54.312L32.188,49.084L31.8,0.068Z" style="fill:rgb(96,86,96);fill-rule:nonzero;"/>
                <path d="M33.508,57.69C33.578,56.89 33.962,56.226 34.38,55.564C33.96,55.39 33.648,55.044 33.404,54.658C33.194,54.31 33.02,53.892 32.884,53.508C32.396,52.044 32.292,50.508 32.152,49.012L32.152,48.106C31.978,48.246 31.942,49.43 31.942,49.606C31.84,51.187 31.63,52.759 31.314,54.312C31.21,54.94 31.14,55.566 30.754,56.124C30.754,56.194 30.754,56.264 30.788,56.368C31.416,58.216 31.588,60.098 31.694,62.016L31.694,62.716C31.694,63.552 31.66,63.376 32.354,63.656C32.634,63.76 32.946,63.796 33.226,64.004C33.436,64.004 33.47,63.83 33.47,63.69L33.366,62.54L33.366,59.332C33.332,58.772 33.436,58.216 33.506,57.692L33.508,57.69Z" style="fill:rgb(194,191,191);fill-rule:nonzero;"/>
            </g>
        </g>
    </g>
</svg>
