<?xml version="1.0" encoding="UTF-8" standalone="no"?>
<!DOCTYPE svg PUBLIC "-//W3C//DTD SVG 1.1//EN" "http://www.w3.org/Graphics/SVG/1.1/DTD/svg11.dtd">
<svg width="100%" height="100%" viewBox="0 0 800 800" version="1.1" xmlns="http://www.w3.org/2000/svg" xmlns:xlink="http://www.w3.org/1999/xlink" xml:space="preserve" xmlns:serif="http://www.serif.com/" style="fill-rule:evenodd;clip-rule:evenodd;stroke-linejoin:round;stroke-miterlimit:2;">
    <rect id="Artboard1" x="0" y="0" width="800" height="800" style="fill:none;"/>
    <clipPath id="_clip1">
        <rect id="Artboard11" serif:id="Artboard1" x="0" y="0" width="800" height="800"/>
    </clipPath>
    <g clip-path="url(#_clip1)">
        <g id="NPM" transform="matrix(1,0,0,1,-560,-140)">
            <rect x="0" y="0" width="1920" height="1080" style="fill:none;"/>
            <g transform="matrix(1.03834,0,0,1.03834,-36.8084,-20.7047)">
                <circle cx="960" cy="540" r="385.23" style="fill:rgb(218,68,83);"/>
            </g>
            <g id="NPM-Icon" serif:id="NPM Icon" transform="matrix(0.925926,0,0,0.925926,710,442.778)">
                <path d="M0,0L540,0L540,180L270,180L270,210L150,210L150,180L0,180L0,0ZM30,150L90,150L90,60L120,60L120,150L150,150L150,30L30,30L30,150ZM180,30L180,180L240,180L240,150L300,150L300,30L180,30ZM240,60L270,60L270,120L240,120L240,60ZM330,30L330,150L390,150L390,60L420,60L420,150L450,150L450,60L480,60L480,150L510,150L510,30L330,30Z" style="fill:rgb(203,56,55);fill-rule:nonzero;"/>
                <path d="M30,150L90,150L90,60L120,60L120,150L150,150L150,30L30,30L30,150Z" style="fill:white;fill-rule:nonzero;"/>
                <path d="M180,30L180,180L240,180L240,150L300,150L300,30L180,30ZM270,120L240,120L240,60L270,60L270,120Z" style="fill:white;fill-rule:nonzero;"/>
                <path d="M330,30L330,150L390,150L390,60L420,60L420,150L450,150L450,60L480,60L480,150L510,150L510,30L330,30Z" style="fill:white;fill-rule:nonzero;"/>
            </g>
            <g id="NPM-B-W-Icon" serif:id="NPM B&amp;W Icon" transform="matrix(0.925926,0,0,0.925926,710,442.778)">
                <path d="M0,0L540,0L540,180L270,180L270,210L150,210L150,180L0,180L0,0ZM30,150L90,150L90,60L120,60L120,150L150,150L150,30L30,30L30,150ZM180,30L180,180L240,180L240,150L300,150L300,30L180,30ZM240,60L270,60L270,120L240,120L240,60ZM330,30L330,150L390,150L390,60L420,60L420,150L450,150L450,60L480,60L480,150L510,150L510,30L330,30Z" style="fill:rgb(45,41,45);fill-rule:nonzero;"/>
                <path d="M30,150L90,150L90,60L120,60L120,150L150,150L150,30L30,30L30,150Z" style="fill:white;fill-rule:nonzero;"/>
                <path d="M180,30L180,180L240,180L240,150L300,150L300,30L180,30ZM270,120L240,120L240,60L270,60L270,120Z" style="fill:white;fill-rule:nonzero;"/>
                <path d="M330,30L330,150L390,150L390,60L420,60L420,150L450,150L450,60L480,60L480,150L510,150L510,30L330,30Z" style="fill:white;fill-rule:nonzero;"/>
            </g>
        </g>
    </g>
</svg>
