<?xml version="1.0" encoding="UTF-8" standalone="no"?>
<!DOCTYPE svg PUBLIC "-//W3C//DTD SVG 1.1//EN" "http://www.w3.org/Graphics/SVG/1.1/DTD/svg11.dtd">
<svg width="100%" height="100%" viewBox="0 0 800 800" version="1.1" xmlns="http://www.w3.org/2000/svg" xmlns:xlink="http://www.w3.org/1999/xlink" xml:space="preserve" xmlns:serif="http://www.serif.com/" style="fill-rule:evenodd;clip-rule:evenodd;">
    <rect id="Artboard1" x="0" y="0" width="800" height="800" style="fill:none;"/>
    <clipPath id="_clip1">
        <rect id="Artboard11" serif:id="Artboard1" x="0" y="0" width="800" height="800"/>
    </clipPath>
    <g clip-path="url(#_clip1)">
        <g id="React" transform="matrix(1,0,0,1,-560,-140)">
            <rect x="0" y="0" width="1920" height="1080" style="fill:none;"/>
            <g transform="matrix(1.03834,0,0,1.03834,-36.8084,-20.7047)">
                <circle cx="960" cy="540" r="385.23" style="fill:rgb(218,68,83);"/>
            </g>
            <g id="React-Icon" serif:id="React Icon" transform="matrix(21.503,0,0,21.503,712.715,319.987)">
                <g transform="matrix(1,0,0,1,11.5,10.2317)">
                    <circle cx="0" cy="0" r="2.05" style="fill:rgb(97,218,251);"/>
                </g>
                <g transform="matrix(1,0,0,1,11.5,10.2317)">
                    <ellipse cx="0" cy="0" rx="11" ry="4.2" style="fill:none;stroke:rgb(97,218,251);stroke-width:1px;"/>
                    <g transform="matrix(0.5,0.866025,-0.866025,0.5,0,0)">
                        <ellipse cx="0" cy="0" rx="11" ry="4.2" style="fill:none;stroke:rgb(97,218,251);stroke-width:1px;"/>
                    </g>
                    <g transform="matrix(-0.5,0.866025,-0.866025,-0.5,0,0)">
                        <ellipse cx="0" cy="0" rx="11" ry="4.2" style="fill:none;stroke:rgb(97,218,251);stroke-width:1px;"/>
                    </g>
                </g>
            </g>
            <g id="React-B-W-Icon" serif:id="React B&amp;W Icon" transform="matrix(21.503,0,0,21.503,712.715,319.987)">
                <g transform="matrix(1,0,0,1,11.5,10.2317)">
                    <circle cx="0" cy="0" r="2.05" style="fill:rgb(45,41,45);"/>
                </g>
                <g transform="matrix(1,0,0,1,11.5,10.2317)">
                    <ellipse cx="0" cy="0" rx="11" ry="4.2" style="fill:none;stroke:rgb(45,41,45);stroke-width:1px;"/>
                    <g transform="matrix(0.5,0.866025,-0.866025,0.5,0,0)">
                        <ellipse cx="0" cy="0" rx="11" ry="4.2" style="fill:none;stroke:rgb(45,41,45);stroke-width:1px;"/>
                    </g>
                    <g transform="matrix(-0.5,0.866025,-0.866025,-0.5,0,0)">
                        <ellipse cx="0" cy="0" rx="11" ry="4.2" style="fill:none;stroke:rgb(45,41,45);stroke-width:1px;"/>
                    </g>
                </g>
            </g>
        </g>
    </g>
</svg>
