<?xml version="1.0" encoding="UTF-8" standalone="no"?><!DOCTYPE svg PUBLIC "-//W3C//DTD SVG 1.1//EN" "http://www.w3.org/Graphics/SVG/1.1/DTD/svg11.dtd"><svg width="100%" height="100%" viewBox="0 0 512 512" version="1.1" xmlns="http://www.w3.org/2000/svg" xmlns:xlink="http://www.w3.org/1999/xlink" xml:space="preserve" xmlns:serif="http://www.serif.com/" style="fill-rule:evenodd;clip-rule:evenodd;stroke-linejoin:round;stroke-miterlimit:2;"><rect x="0" y="0" width="512" height="512" style="fill:#0000cd;"/><path d="M217.594,231.241l0,49.518l32.121,0l-0,-8.665l-22.732,-0l0,-12.38l20.755,-0l-0,-8.418l-20.755,-0l0,-11.39l22.732,0l-0,-8.665l-32.121,-0Z" style="fill:#fff;fill-rule:nonzero;"/><path d="M178.563,239.237l-6.918,-0l0,16.687l6.918,0c5.413,0 9.39,-2.624 9.39,-8.345c-0,-5.939 -3.977,-8.342 -9.39,-8.342Zm0.495,24.686l-7.413,-0l0,16.836l-9.389,0l0,-49.518l16.802,-0c10.537,-0 18.778,4.783 18.778,16.341c0,11.389 -8.302,16.341 -18.778,16.341Z" style="fill:#fff;fill-rule:nonzero;"/><path d="M331.255,231.241l0,8.665l11.613,0l-0,32.188l-11.613,-0l0,8.665l32.615,0l0,-8.665l-11.613,-0l0,-32.188l11.613,0l0,-8.665l-32.615,-0Z" style="fill:#fff;fill-rule:nonzero;"/><path d="M299.756,246.591c0,5.966 -3.459,7.848 -9.389,7.848l-7.907,-0l0,-15.202l7.907,-0c6.436,0.002 9.389,2.403 9.389,7.354Zm9.884,0c-0,-11.558 -7.907,-15.35 -18.284,-15.35l-18.284,-0l-0,49.518l9.388,0l0,-18.322l7.907,0c0.433,0 0.864,-0.008 1.291,-0.023l9.566,18.345l10.404,0l-10.613,-20.308c5.163,-2.298 8.625,-6.714 8.625,-13.86Z" style="fill:#fff;fill-rule:nonzero;"/><path d="M405.066,240.026l6.755,21.841l-13.513,-0l6.758,-21.841Zm-6.177,-8.785l-16.308,49.518l9.884,0l3.369,-10.894l18.461,0l3.37,10.894l9.883,0l-16.308,-49.518l-12.351,-0Z" style="fill:#fff;fill-rule:nonzero;"/><path d="M448.744,231.241l0,49.518l32.203,0l-0,-8.665l-22.813,-0l-0,-40.853l-9.39,-0Z" style="fill:#fff;fill-rule:nonzero;"/><path d="M125.028,231.241l-11.86,29.117l-11.86,-29.117l-13.342,-0l-0,49.518l8.895,0l-0,-37.022l11.366,26.128l9.883,0l11.366,-26.128l-0,37.022l8.894,0l0,-49.518l-13.342,-0Z" style="fill:#fff;fill-rule:nonzero;"/><path d="M31,231.241l0,8.665l11.613,0l-0,32.188l-11.613,-0l0,8.665l32.615,0l-0,-8.665l-11.613,-0l0,-32.188l11.613,0l-0,-8.665l-32.615,-0Z" style="fill:#fff;fill-rule:nonzero;"/></svg>